<?xml version="1.0" encoding="iso-8859-1"?>
<!-- Generator: Adobe Illustrator 19.0.0, SVG Export Plug-In . SVG Version: 6.00 Build 0)  -->
<svg version="1.1" id="Layer_1" xmlns="http://www.w3.org/2000/svg" xmlns:xlink="http://www.w3.org/1999/xlink" x="0px" y="0px"
	 viewBox="0 0 512.016 512.016" style="enable-background:new 0 0 512.016 512.016;" xml:space="preserve">
<g>
	<polygon style="fill:#999999;" points="368.632,461.946 169.208,461.946 169.208,446.001 362.031,446.001 402.174,405.858 
		490.122,405.858 490.122,421.803 408.776,421.803 	"/>
	<polygon style="fill:#999999;" points="342.808,461.946 143.384,461.946 103.24,421.803 21.893,421.803 21.893,405.858 
		109.842,405.858 149.985,446.001 342.808,446.001 	"/>
	<rect x="165.444" y="496.07" style="fill:#999999;" width="181.135" height="15.946"/>
</g>
<path style="fill:#E21B1B;" d="M256.008,365.419l-15.467-20.426c-11.377-14.917-111.006-147.872-111.006-214.135
	C129.535,51.369,179.15,0,256.008,0s126.473,51.369,126.473,130.858c0,66.175-99.661,199.154-110.918,214.143L256.008,365.419z"/>
<circle style="fill:#FFFFFF;" cx="255.936" cy="131.727" r="40.956"/>
<g>
</g>
<g>
</g>
<g>
</g>
<g>
</g>
<g>
</g>
<g>
</g>
<g>
</g>
<g>
</g>
<g>
</g>
<g>
</g>
<g>
</g>
<g>
</g>
<g>
</g>
<g>
</g>
<g>
</g>
</svg>
